<?xml version="1.0" encoding="utf-8"?>
<!-- Generator: Adobe Illustrator 16.0.0, SVG Export Plug-In . SVG Version: 6.00 Build 0)  -->
<!DOCTYPE svg PUBLIC "-//W3C//DTD SVG 1.1//EN" "http://www.w3.org/Graphics/SVG/1.1/DTD/svg11.dtd">
<svg version="1.1" id="Layer_1" xmlns="http://www.w3.org/2000/svg" xmlns:xlink="http://www.w3.org/1999/xlink" x="0px" y="0px"
	 width="128px" height="128px" viewBox="0 0 128 128" enable-background="new 0 0 128 128" xml:space="preserve">
<g>
	<path fill="#FFFFFF" d="M86.478,82.072c0-0.662,0.059-1.254,0.176-1.771c0.118-0.517,0.342-0.941,0.675-1.273
		c0.332-0.332,0.79-0.586,1.376-0.763C89.29,78.089,90.052,78,90.989,78h12.832c0.898,0,1.626,0.084,2.183,0.25
		s0.991,0.416,1.303,0.748c0.313,0.332,0.519,0.75,0.616,1.26c0.099,0.508,0.146,1.113,0.146,1.814v21.915
		c0,0.663-0.047,1.245-0.146,1.742c-0.098,0.499-0.303,0.919-0.616,1.261c-0.312,0.342-0.746,0.596-1.303,0.761
		c-0.557,0.167-1.284,0.249-2.183,0.249H90.989c-0.938,0-1.699-0.088-2.285-0.263c-0.586-0.176-1.044-0.432-1.376-0.764
		c-0.333-0.33-0.557-0.75-0.675-1.258c-0.117-0.508-0.176-1.104-0.176-1.787V82.072z"/>
	<path fill="#FFFFFF" d="M86.821,47.819c0.207-0.77,0.458-1.437,0.755-2c0.296-0.563,0.688-0.986,1.177-1.268
		s1.099-0.434,1.832-0.456c0.734-0.021,1.645,0.113,2.731,0.404l14.873,3.985c1.042,0.279,1.859,0.601,2.453,0.966
		c0.594,0.366,1.02,0.789,1.279,1.271c0.259,0.482,0.366,1.032,0.321,1.651c-0.044,0.619-0.176,1.336-0.395,2.151l-4.194,15.655
		c-0.206,0.77-0.443,1.428-0.711,1.975c-0.269,0.547-0.637,0.97-1.104,1.27c-0.469,0.299-1.051,0.458-1.748,0.478
		c-0.696,0.02-1.565-0.11-2.607-0.39L86.61,69.527c-1.087-0.291-1.942-0.629-2.567-1.015c-0.624-0.386-1.077-0.823-1.359-1.311
		c-0.281-0.488-0.411-1.045-0.39-1.67s0.139-1.334,0.352-2.126L86.821,47.819z"/>
</g>
</svg>
