<?xml version="1.0" encoding="utf-8"?>
<!-- Generator: Adobe Illustrator 16.0.0, SVG Export Plug-In . SVG Version: 6.00 Build 0)  -->
<!DOCTYPE svg PUBLIC "-//W3C//DTD SVG 1.1//EN" "http://www.w3.org/Graphics/SVG/1.1/DTD/svg11.dtd">
<svg version="1.1" id="Layer_1" xmlns="http://www.w3.org/2000/svg" xmlns:xlink="http://www.w3.org/1999/xlink" x="0px" y="0px"
	 width="608.841px" height="162.269px" viewBox="0 0 608.841 162.269" enable-background="new 0 0 608.841 162.269"
	 xml:space="preserve">
<g>
	<path d="M5.175,157.466c0.436,0.588,0.659,1.21,0.659,1.869c0,0.806-0.275,1.486-0.826,2.037c-0.551,0.549-1.233,0.824-2.037,0.824
		c-0.809,0-1.503-0.275-2.094-0.824C0.292,160.821,0,160.141,0,159.335c0-0.659,0.218-1.281,0.66-1.869V4.952
		C0.218,4.292,0,3.631,0,2.972C0,2.166,0.292,1.469,0.878,0.88C1.469,0.294,2.163,0,2.972,0c0.803,0,1.486,0.294,2.037,0.88
		c0.551,0.588,0.826,1.285,0.826,2.092c0,0.659-0.223,1.32-0.659,1.98V157.466z"/>
	<path d="M69.871,156.585c0.516,0.146,1.026,0.551,1.543,1.211c0.441,0.659,0.567,1.373,0.384,2.145
		c-0.184,0.769-0.677,1.375-1.485,1.815c-0.585,0.512-1.286,0.641-2.089,0.386c-0.808-0.259-1.394-0.68-1.761-1.267
		c-0.219-0.367-0.351-0.696-0.384-0.989c-0.04-0.292-0.058-0.622-0.058-0.992L40.055,114.88H29.052v42.586
		c0.436,0.588,0.66,1.21,0.66,1.869c0,0.806-0.275,1.486-0.826,2.037c-0.551,0.549-1.233,0.824-2.037,0.824
		c-0.808,0-1.502-0.275-2.093-0.824c-0.585-0.551-0.878-1.231-0.878-2.037c0-0.659,0.218-1.281,0.66-1.869V2.202h24.101
		c4.47,0,8.199,0.734,11.165,2.199c2.971,1.469,5.375,3.412,7.211,5.833c1.83,2.419,3.133,5.17,3.907,8.253
		c0.77,3.081,1.153,6.236,1.153,9.463V89.9c0,3.23-0.384,6.346-1.153,9.354c-0.774,3.01-2.077,5.665-3.907,7.978
		c-1.835,2.312-4.24,4.165-7.211,5.557c-2.966,1.394-6.695,2.091-11.165,2.091h-3.414L69.871,156.585z M48.638,110.368
		c3.592,0,6.598-0.568,9.019-1.704c2.421-1.139,4.366-2.659,5.834-4.566c1.469-1.908,2.513-4.092,3.139-6.549
		c0.62-2.455,0.935-5.006,0.935-7.648v-61.95c0-2.567-0.315-5.118-0.935-7.648c-0.625-2.531-1.67-4.804-3.139-6.822
		c-1.469-2.017-3.413-3.648-5.834-4.897c-2.421-1.246-5.427-1.872-9.019-1.872H29.052v103.656H48.638z"/>
	<path d="M133.912,156.585c0.517,0.146,1.027,0.551,1.543,1.211c0.442,0.659,0.567,1.373,0.384,2.145
		c-0.184,0.769-0.676,1.375-1.485,1.815c-0.585,0.512-1.285,0.641-2.088,0.386c-0.809-0.259-1.395-0.68-1.762-1.267
		c-0.217-0.367-0.349-0.696-0.384-0.989c-0.04-0.292-0.057-0.622-0.057-0.992l-25.966-44.014H93.094v42.586
		c0.436,0.588,0.659,1.21,0.659,1.869c0,0.806-0.275,1.486-0.826,2.037c-0.551,0.549-1.233,0.824-2.037,0.824
		c-0.809,0-1.503-0.275-2.094-0.824c-0.585-0.551-0.878-1.231-0.878-2.037c0-0.659,0.217-1.281,0.659-1.869V2.202h24.101
		c4.47,0,8.199,0.734,11.165,2.199c2.972,1.469,5.375,3.412,7.211,5.833c1.831,2.419,3.133,5.17,3.907,8.253
		c0.769,3.081,1.153,6.236,1.153,9.463V89.9c0,3.23-0.384,6.346-1.153,9.354c-0.774,3.01-2.076,5.665-3.907,7.978
		c-1.835,2.312-4.239,4.165-7.211,5.557c-2.966,1.394-6.695,2.091-11.165,2.091h-3.413L133.912,156.585z M112.679,110.368
		c3.592,0,6.598-0.568,9.019-1.704c2.421-1.139,4.366-2.659,5.834-4.566c1.469-1.908,2.513-4.092,3.139-6.549
		c0.619-2.455,0.935-5.006,0.935-7.648v-61.95c0-2.567-0.315-5.118-0.935-7.648c-0.625-2.531-1.669-4.804-3.139-6.822
		c-1.469-2.017-3.413-3.648-5.834-4.897c-2.421-1.246-5.427-1.872-9.019-1.872H93.094v103.656H112.679z"/>
	<path d="M190.037,155.483c0.66-0.439,1.319-0.661,1.979-0.661c0.803,0,1.502,0.296,2.088,0.883
		c0.585,0.588,0.883,1.285,0.883,2.091s-0.298,1.485-0.883,2.032c-0.585,0.551-1.285,0.826-2.088,0.826
		c-0.661,0-1.32-0.221-1.979-0.659h-41.926V27.73c0-3.227,0.367-6.363,1.102-9.407c0.728-3.044,2.013-5.758,3.849-8.144
		c1.831-2.382,4.275-4.308,7.315-5.777c3.047-1.465,6.845-2.199,11.394-2.199h18.267c0.66-0.441,1.319-0.661,1.979-0.661
		c0.803,0,1.502,0.294,2.088,0.88c0.585,0.588,0.883,1.285,0.883,2.09c0,0.808-0.298,1.505-0.883,2.092
		c-0.585,0.588-1.285,0.88-2.088,0.88c-0.592,0-1.251-0.257-1.979-0.772h-18.267c-3.746,0-6.845,0.605-9.3,1.816
		c-2.461,1.21-4.423,2.806-5.886,4.787c-1.469,1.981-2.495,4.236-3.081,6.767c-0.591,2.532-0.883,5.082-0.883,7.648v19.585h30.922
		c0.66-0.438,1.32-0.659,1.979-0.659c0.809,0,1.503,0.275,2.094,0.826c0.585,0.551,0.878,1.228,0.878,2.037
		s-0.292,1.503-0.878,2.088c-0.59,0.588-1.285,0.881-2.094,0.881c-0.66,0-1.32-0.218-1.979-0.661h-30.922v103.656H190.037z"/>
	<path d="M251.984,155.483c0.659-0.439,1.36-0.661,2.094-0.661c0.804,0,1.486,0.296,2.037,0.883
		c0.551,0.588,0.825,1.285,0.825,2.091s-0.274,1.485-0.825,2.032c-0.551,0.551-1.233,0.826-2.037,0.826
		c-0.733,0-1.435-0.221-2.094-0.659h-43.463V4.952c-0.442-0.66-0.66-1.321-0.66-1.98c0-0.807,0.292-1.503,0.877-2.092
		c0.592-0.586,1.285-0.88,2.094-0.88c0.804,0,1.486,0.294,2.037,0.88c0.551,0.588,0.826,1.285,0.826,2.092
		c0,0.659-0.224,1.32-0.66,1.98v150.531H251.984z"/>
	<path d="M305.138,155.483c0.659-0.439,1.319-0.661,1.979-0.661c0.803,0,1.502,0.296,2.088,0.883
		c0.585,0.588,0.884,1.285,0.884,2.091s-0.299,1.485-0.884,2.032c-0.586,0.551-1.285,0.826-2.088,0.826
		c-0.66,0-1.32-0.221-1.979-0.659h-41.926V27.73c0-3.227,0.367-6.363,1.102-9.407c0.729-3.044,2.013-5.758,3.849-8.144
		c1.831-2.382,4.275-4.308,7.315-5.777c3.046-1.465,6.844-2.199,11.394-2.199h18.267c0.659-0.441,1.319-0.661,1.979-0.661
		c0.803,0,1.502,0.294,2.088,0.88c0.585,0.588,0.884,1.285,0.884,2.09c0,0.808-0.299,1.505-0.884,2.092
		c-0.586,0.588-1.285,0.88-2.088,0.88c-0.592,0-1.251-0.257-1.979-0.772h-18.267c-3.746,0-6.844,0.605-9.3,1.816
		c-2.461,1.21-4.423,2.806-5.887,4.787c-1.468,1.981-2.495,4.236-3.08,6.767c-0.591,2.532-0.883,5.082-0.883,7.648v19.585h30.922
		c0.659-0.438,1.319-0.659,1.979-0.659c0.81,0,1.504,0.275,2.095,0.826c0.585,0.551,0.878,1.228,0.878,2.037
		s-0.293,1.503-0.878,2.088c-0.591,0.588-1.285,0.881-2.095,0.881c-0.659,0-1.319-0.218-1.979-0.661h-30.922v103.656H305.138z"/>
	<path d="M346.013,157.796c0.294,0.588,0.442,1.098,0.442,1.539c0,0.806-0.299,1.486-0.883,2.037
		c-0.586,0.549-1.285,0.824-2.089,0.824c-0.809,0-1.486-0.275-2.036-0.824c-0.551-0.551-0.826-1.231-0.826-2.037
		c0-0.221,0.017-0.476,0.057-0.771c0.035-0.292,0.16-0.547,0.385-0.768L317.621,5.172c-0.586-0.585-0.878-1.32-0.878-2.2
		c0-0.807,0.275-1.503,0.826-2.092C318.12,0.294,318.797,0,319.606,0c0.803,0,1.496,0.294,2.088,0.88
		c0.585,0.588,0.878,1.285,0.878,2.092c0,0.367-0.035,0.659-0.109,0.88c-0.074,0.219-0.184,0.44-0.326,0.659l21.347,139.529
		L364.939,4.512c-0.218-0.219-0.35-0.44-0.385-0.659c-0.039-0.221-0.057-0.514-0.057-0.88c0-0.807,0.275-1.503,0.826-2.092
		C365.875,0.294,366.552,0,367.36,0c0.804,0,1.504,0.294,2.088,0.88c0.586,0.588,0.884,1.285,0.884,2.092
		c0,0.44-0.092,0.824-0.275,1.154c-0.184,0.332-0.384,0.68-0.608,1.046L346.013,157.796z"/>
	<path d="M429.365,157.466c0.442,0.588,0.66,1.21,0.66,1.869c0,0.806-0.275,1.486-0.826,2.037c-0.551,0.549-1.228,0.824-2.031,0.824
		c-0.809,0-1.509-0.275-2.093-0.824c-0.586-0.551-0.878-1.231-0.878-2.037c0-0.659,0.217-1.281,0.659-1.869V51.827h-37.853v105.639
		c0.436,0.588,0.659,1.21,0.659,1.869c0,0.806-0.292,1.486-0.883,2.037c-0.585,0.549-1.285,0.824-2.088,0.824
		c-0.81,0-1.486-0.275-2.037-0.824c-0.551-0.551-0.826-1.231-0.826-2.037c0-0.659,0.224-1.281,0.659-1.869V27.951
		c0-3.227,0.367-6.382,1.103-9.463c0.734-3.083,2.02-5.833,3.849-8.253c1.836-2.421,4.274-4.364,7.321-5.833
		c3.04-1.465,6.838-2.199,11.388-2.199h23.217V157.466z M424.856,47.315V6.712h-18.708c-3.741,0-6.839,0.626-9.3,1.872
		c-2.455,1.249-4.418,2.88-5.886,4.897c-1.469,2.019-2.496,4.292-3.081,6.822c-0.586,2.53-0.878,5.081-0.878,7.648v19.365H424.856z"
		/>
	<path d="M494.182,157.466c0.436,0.588,0.66,1.21,0.66,1.869c0,0.806-0.275,1.486-0.826,2.037c-0.551,0.549-1.234,0.824-2.036,0.824
		c-0.81,0-1.505-0.275-2.094-0.824c-0.587-0.551-0.879-1.231-0.879-2.037c0-0.659,0.219-1.281,0.661-1.869V8.583l-37.854,40.275
		v108.607c0.442,0.588,0.661,1.21,0.661,1.869c0,0.806-0.275,1.486-0.826,2.037c-0.551,0.549-1.229,0.824-2.037,0.824
		c-0.803,0-1.503-0.275-2.088-0.824c-0.592-0.551-0.879-1.231-0.879-2.037c0-0.659,0.22-1.281,0.66-1.869V4.952
		c-0.44-0.66-0.66-1.321-0.66-1.98c0-0.807,0.287-1.503,0.879-2.092c0.585-0.586,1.285-0.88,2.088-0.88
		c0.809,0,1.486,0.294,2.037,0.88c0.551,0.588,0.826,1.285,0.826,2.092c0,0.659-0.219,1.32-0.661,1.98v37.633l37.854-40.383h4.514
		V157.466z"/>
	<path d="M532.47,157.466c0.442,0.588,0.659,1.21,0.659,1.869c0,0.806-0.275,1.486-0.826,2.037
		c-0.551,0.549-1.227,0.824-2.029,0.824c-0.809,0-1.509-0.275-2.094-0.824c-0.586-0.551-0.879-1.231-0.879-2.037
		c0-0.659,0.22-1.281,0.659-1.869V6.712h-17.163c-0.517,0.515-1.102,0.772-1.763,0.772c-0.81,0-1.508-0.292-2.094-0.88
		c-0.585-0.586-0.877-1.284-0.877-2.092c0-0.806,0.292-1.502,0.877-2.09c0.586-0.585,1.284-0.88,2.094-0.88
		c0.729,0,1.32,0.219,1.763,0.661h38.62c0.66-0.441,1.319-0.661,1.979-0.661c0.81,0,1.505,0.294,2.095,0.88
		c0.586,0.588,0.879,1.285,0.879,2.09c0,0.808-0.293,1.505-0.879,2.092c-0.59,0.588-1.285,0.88-2.095,0.88
		c-0.584,0-1.244-0.257-1.979-0.772H532.47V157.466z"/>
	<path d="M603.89,155.483c0.659-0.439,1.319-0.661,1.98-0.661c0.802,0,1.502,0.296,2.087,0.883c0.585,0.588,0.884,1.285,0.884,2.091
		s-0.299,1.485-0.884,2.032c-0.585,0.551-1.285,0.826-2.087,0.826c-0.661,0-1.321-0.221-1.98-0.659h-41.925V27.73
		c0-3.227,0.367-6.363,1.102-9.407c0.728-3.044,2.012-5.758,3.85-8.144c1.829-2.382,4.273-4.308,7.313-5.777
		c3.046-1.465,6.845-2.199,11.394-2.199h18.267c0.659-0.441,1.319-0.661,1.98-0.661c0.802,0,1.502,0.294,2.087,0.88
		c0.585,0.588,0.884,1.285,0.884,2.09c0,0.808-0.299,1.505-0.884,2.092c-0.585,0.588-1.285,0.88-2.087,0.88
		c-0.592,0-1.251-0.257-1.98-0.772h-18.267c-3.746,0-6.843,0.605-9.299,1.816c-2.462,1.21-4.423,2.806-5.887,4.787
		c-1.469,1.981-2.495,4.236-3.081,6.767c-0.59,2.532-0.883,5.082-0.883,7.648v19.585h30.921c0.66-0.438,1.321-0.659,1.98-0.659
		c0.81,0,1.503,0.275,2.094,0.826c0.585,0.551,0.878,1.228,0.878,2.037s-0.293,1.503-0.878,2.088
		c-0.591,0.588-1.284,0.881-2.094,0.881c-0.659,0-1.32-0.218-1.98-0.661h-30.921v103.656H603.89z"/>
</g>
</svg>
